<svg width="17" height="18" viewBox="0 0 17 18" fill="none" xmlns="http://www.w3.org/2000/svg">
<path d="M8.5676 8.99409C7.49733 8.99409 6.58111 8.55746 5.81895 7.6842C5.05679 6.81094 4.67571 5.76117 4.67571 4.53489C4.67571 3.30861 5.05679 2.25884 5.81895 1.38557C6.58111 0.512314 7.49733 0.0756836 8.5676 0.0756836C9.63787 0.0756836 10.5541 0.512314 11.3162 1.38557C12.0784 2.25884 12.4595 3.30861 12.4595 4.53489C12.4595 5.76117 12.0784 6.81094 11.3162 7.6842C10.5541 8.55746 9.63787 8.99409 8.5676 8.99409ZM0.783813 17.9125V14.7911C0.783813 14.1593 0.925868 13.5785 1.20998 13.0486C1.49344 12.5195 1.8703 12.1155 2.34057 11.8368C3.34598 11.2609 4.3676 10.8287 5.40544 10.5403C6.44327 10.2527 7.49733 10.1089 8.5676 10.1089C9.63787 10.1089 10.6919 10.2527 11.7298 10.5403C12.7676 10.8287 13.7892 11.2609 14.7946 11.8368C15.2649 12.1155 15.6418 12.5195 15.9252 13.0486C16.2093 13.5785 16.3514 14.1593 16.3514 14.7911V17.9125H0.783813ZM2.72976 15.6829H14.4054V14.7911C14.4054 14.5867 14.361 14.4009 14.2721 14.2337C14.1826 14.0664 14.0649 13.9364 13.9189 13.8435C13.0433 13.3418 12.1595 12.9654 11.2676 12.7142C10.3757 12.4637 9.47571 12.3385 8.5676 12.3385C7.65949 12.3385 6.75949 12.4637 5.8676 12.7142C4.97571 12.9654 4.09192 13.3418 3.21625 13.8435C3.0703 13.9364 2.95289 14.0664 2.86403 14.2337C2.77452 14.4009 2.72976 14.5867 2.72976 14.7911V15.6829ZM8.5676 6.76449C9.10273 6.76449 9.561 6.54599 9.94241 6.10898C10.3232 5.67273 10.5135 5.14803 10.5135 4.53489C10.5135 3.92175 10.3232 3.39705 9.94241 2.96079C9.561 2.52379 9.10273 2.30528 8.5676 2.30528C8.03246 2.30528 7.57452 2.52379 7.19376 2.96079C6.81235 3.39705 6.62165 3.92175 6.62165 4.53489C6.62165 5.14803 6.81235 5.67273 7.19376 6.10898C7.57452 6.54599 8.03246 6.76449 8.5676 6.76449Z" fill="#DE9D9B"/>
</svg>
