<svg width="16" height="18" viewBox="0 0 16 18" fill="none" xmlns="http://www.w3.org/2000/svg">
<path d="M8 8.99409C6.9 8.99409 5.95833 8.55746 5.175 7.6842C4.39167 6.81094 4 5.76117 4 4.53489C4 3.30861 4.39167 2.25884 5.175 1.38557C5.95833 0.512314 6.9 0.0756836 8 0.0756836C9.1 0.0756836 10.0417 0.512314 10.825 1.38557C11.6083 2.25884 12 3.30861 12 4.53489C12 5.76117 11.6083 6.81094 10.825 7.6842C10.0417 8.55746 9.1 8.99409 8 8.99409ZM0 17.9125V14.7911C0 14.1593 0.146 13.5785 0.438 13.0486C0.729334 12.5195 1.11667 12.1155 1.6 11.8368C2.63333 11.2609 3.68333 10.8287 4.75 10.5403C5.81667 10.2527 6.9 10.1089 8 10.1089C9.1 10.1089 10.1833 10.2527 11.25 10.5403C12.3167 10.8287 13.3667 11.2609 14.4 11.8368C14.8833 12.1155 15.2707 12.5195 15.562 13.0486C15.854 13.5785 16 14.1593 16 14.7911V17.9125H0ZM2 15.6829H14V14.7911C14 14.5867 13.9543 14.4009 13.863 14.2337C13.771 14.0664 13.65 13.9364 13.5 13.8435C12.6 13.3418 11.6917 12.9654 10.775 12.7142C9.85833 12.4637 8.93333 12.3385 8 12.3385C7.06667 12.3385 6.14167 12.4637 5.225 12.7142C4.30833 12.9654 3.4 13.3418 2.5 13.8435C2.35 13.9364 2.22933 14.0664 2.138 14.2337C2.046 14.4009 2 14.5867 2 14.7911V15.6829ZM8 6.76449C8.55 6.76449 9.021 6.54599 9.413 6.10898C9.80433 5.67273 10 5.14803 10 4.53489C10 3.92175 9.80433 3.39705 9.413 2.96079C9.021 2.52379 8.55 2.30528 8 2.30528C7.45 2.30528 6.97933 2.52379 6.588 2.96079C6.196 3.39705 6 3.92175 6 4.53489C6 5.14803 6.196 5.67273 6.588 6.10898C6.97933 6.54599 7.45 6.76449 8 6.76449Z" fill="#DE9D9B"/>
</svg>
