<svg width="16" height="19" viewBox="0 0 16 19" fill="none" xmlns="http://www.w3.org/2000/svg">
<path d="M8 9.10932C6.9 9.10932 5.95833 8.67269 5.175 7.79943C4.39167 6.92617 4 5.8764 4 4.65012C4 3.42384 4.39167 2.37407 5.175 1.50081C5.95833 0.627548 6.9 0.190918 8 0.190918C9.1 0.190918 10.0417 0.627548 10.825 1.50081C11.6083 2.37407 12 3.42384 12 4.65012C12 5.8764 11.6083 6.92617 10.825 7.79943C10.0417 8.67269 9.1 9.10932 8 9.10932ZM0 18.0277V14.9063C0 14.2746 0.146 13.6938 0.438 13.1639C0.729334 12.6347 1.11667 12.2308 1.6 11.9521C2.63333 11.3761 3.68333 10.9439 4.75 10.6556C5.81667 10.3679 6.9 10.2241 8 10.2241C9.1 10.2241 10.1833 10.3679 11.25 10.6556C12.3167 10.9439 13.3667 11.3761 14.4 11.9521C14.8833 12.2308 15.2707 12.6347 15.562 13.1639C15.854 13.6938 16 14.2746 16 14.9063V18.0277H0ZM2 15.7981H14V14.9063C14 14.7019 13.9543 14.5161 13.863 14.3489C13.771 14.1817 13.65 14.0516 13.5 13.9587C12.6 13.457 11.6917 13.0806 10.775 12.8294C9.85833 12.579 8.93333 12.4537 8 12.4537C7.06667 12.4537 6.14167 12.579 5.225 12.8294C4.30833 13.0806 3.4 13.457 2.5 13.9587C2.35 14.0516 2.22933 14.1817 2.138 14.3489C2.046 14.5161 2 14.7019 2 14.9063V15.7981ZM8 6.87972C8.55 6.87972 9.021 6.66122 9.413 6.22422C9.80433 5.78796 10 5.26326 10 4.65012C10 4.03698 9.80433 3.51228 9.413 3.07602C9.021 2.63902 8.55 2.42052 8 2.42052C7.45 2.42052 6.97933 2.63902 6.588 3.07602C6.196 3.51228 6 4.03698 6 4.65012C6 5.26326 6.196 5.78796 6.588 6.22422C6.97933 6.66122 7.45 6.87972 8 6.87972Z" fill="#DE9D9B"/>
</svg>
